{
  "accessors": [
    {
      "bufferView": 2,
      "componentType": 5126,
      "count": 65532,
      "max": [
        0.4868232309818268,
        0.46354836225509644,
        0.4616607427597046
      ],
      "min": [
        -0.4817987084388733,
        -0.4610377848148346,
        -0.4680991470813751
      ],
      "type": "VEC3"
    },
    {
      "bufferView": 2,
      "byteOffset": 786384,
      "componentType": 5126,
      "count": 65532,
      "max": [
        0.9999895095825195,
        0.9999277591705322,
        0.9999849200248718
      ],
      "min": [
        -0.9999967813491821,
        -0.9915780425071716,
        -0.9999968409538269
      ],
      "type": "VEC3"
    },
    {
      "bufferView": 1,
      "componentType": 5126,
      "count": 65532,
      "max": [
        1.0000001192092896,
        1.0000001192092896
      ],
      "min": [
        0.0,
        0.0
      ],
      "type": "VEC2"
    },
    {
      "bufferView": 0,
      "componentType": 5125,
      "count": 384573,
      "type": "SCALAR"
    },
    {
      "bufferView": 2,
      "byteOffset": 1572768,
      "componentType": 5126,
      "count": 2956,
      "max": [
        0.46603554487228394,
        0.4338175654411316,
        0.4384058117866516
      ],
      "min": [
        -0.45790335536003113,
        -0.4458966851234436,
        -0.46798089146614075
      ],
      "type": "VEC3"
    },
    {
      "bufferView": 2,
      "byteOffset": 1608240,
      "componentType": 5126,
      "count": 2956,
      "max": [
        0.9786860942840576,
        0.9988676309585571,
        0.9990134239196777
      ],
      "min": [
        -0.9999901056289673,
        -0.988591730594635,
        -0.9996359944343567
      ],
      "type": "VEC3"
    },
    {
      "bufferView": 1,
      "byteOffset": 524256,
      "componentType": 5126,
      "count": 2956,
      "max": [
        1.0000001192092896,
        1.0000001192092896
      ],
      "min": [
        0.0,
        0.011718750931322575
      ],
      "type": "VEC2"
    },
    {
      "bufferView": 0,
      "byteOffset": 1538292,
      "componentType": 5125,
      "count": 8643,
      "type": "SCALAR"
    },
    {
      "bufferView": 2,
      "byteOffset": 1643712,
      "componentType": 5126,
      "count": 65532,
      "max": [
        0.4868232309818268,
        0.46354836225509644,
        0.4616607427597046
      ],
      "min": [
        -0.4817987084388733,
        -0.4610377848148346,
        -0.4680991470813751
      ],
      "type": "VEC3"
    },
    {
      "bufferView": 2,
      "byteOffset": 2430096,
      "componentType": 5126,
      "count": 65532,
      "max": [
        0.9999895095825195,
        0.9999277591705322,
        0.9999849200248718
      ],
      "min": [
        -0.9999967813491821,
        -0.9915780425071716,
        -0.9999968409538269
      ],
      "type": "VEC3"
    },
    {
      "bufferView": 1,
      "byteOffset": 547904,
      "componentType": 5126,
      "count": 65532,
      "max": [
        1.0000001192092896,
        1.0000001192092896
      ],
      "min": [
        0.0,
        0.0
      ],
      "type": "VEC2"
    },
    {
      "bufferView": 0,
      "byteOffset": 1572864,
      "componentType": 5125,
      "count": 384573,
      "type": "SCALAR"
    },
    {
      "bufferView": 2,
      "byteOffset": 3216480,
      "componentType": 5126,
      "count": 2956,
      "max": [
        0.46603554487228394,
        0.4338175654411316,
        0.4384058117866516
      ],
      "min": [
        -0.45790335536003113,
        -0.4458966851234436,
        -0.46798089146614075
      ],
      "type": "VEC3"
    },
    {
      "bufferView": 2,
      "byteOffset": 3251952,
      "componentType": 5126,
      "count": 2956,
      "max": [
        0.9786860942840576,
        0.9988676309585571,
        0.9990134239196777
      ],
      "min": [
        -0.9999901056289673,
        -0.988591730594635,
        -0.9996359944343567
      ],
      "type": "VEC3"
    },
    {
      "bufferView": 1,
      "byteOffset": 1072160,
      "componentType": 5126,
      "count": 2956,
      "max": [
        1.0000001192092896,
        1.0000001192092896
      ],
      "min": [
        0.0,
        0.011718750931322575
      ],
      "type": "VEC2"
    },
    {
      "bufferView": 0,
      "byteOffset": 3111156,
      "componentType": 5125,
      "count": 8643,
      "type": "SCALAR"
    },
    {
      "bufferView": 2,
      "byteOffset": 3287424,
      "componentType": 5126,
      "count": 65532,
      "max": [
        0.4868232309818268,
        0.46354836225509644,
        0.4616607427597046
      ],
      "min": [
        -0.4817987084388733,
        -0.4610377848148346,
        -0.4680991470813751
      ],
      "type": "VEC3"
    },
    {
      "bufferView": 2,
      "byteOffset": 4073808,
      "componentType": 5126,
      "count": 65532,
      "max": [
        0.9999895095825195,
        0.9999277591705322,
        0.9999849200248718
      ],
      "min": [
        -0.9999967813491821,
        -0.9915780425071716,
        -0.9999968409538269
      ],
      "type": "VEC3"
    },
    {
      "bufferView": 1,
      "byteOffset": 1095808,
      "componentType": 5126,
      "count": 65532,
      "max": [
        1.0000001192092896,
        1.0000001192092896
      ],
      "min": [
        0.0,
        0.0
      ],
      "type": "VEC2"
    },
    {
      "bufferView": 0,
      "byteOffset": 3145728,
      "componentType": 5125,
      "count": 384573,
      "type": "SCALAR"
    },
    {
      "bufferView": 2,
      "byteOffset": 4860192,
      "componentType": 5126,
      "count": 2956,
      "max": [
        0.46603554487228394,
        0.4338175654411316,
        0.4384058117866516
      ],
      "min": [
        -0.45790335536003113,
        -0.4458966851234436,
        -0.46798089146614075
      ],
      "type": "VEC3"
    },
    {
      "bufferView": 2,
      "byteOffset": 4895664,
      "componentType": 5126,
      "count": 2956,
      "max": [
        0.9786860942840576,
        0.9988676309585571,
        0.9990134239196777
      ],
      "min": [
        -0.9999901056289673,
        -0.988591730594635,
        -0.9996359944343567
      ],
      "type": "VEC3"
    },
    {
      "bufferView": 1,
      "byteOffset": 1620064,
      "componentType": 5126,
      "count": 2956,
      "max": [
        1.0000001192092896,
        1.0000001192092896
      ],
      "min": [
        0.0,
        0.011718750931322575
      ],
      "type": "VEC2"
    },
    {
      "bufferView": 0,
      "byteOffset": 4684020,
      "componentType": 5125,
      "count": 8643,
      "type": "SCALAR"
    }
  ],
  "asset": {
    "extras": {
      "author": "Incg5764 (https://sketchfab.com/incg5764)",
      "license": "CC-BY-4.0 (http://creativecommons.org/licenses/by/4.0/)",
      "source": "https://sketchfab.com/3d-models/crumple-of-paper-ff5cf5779b1e4afe8de8d762ba70f03e",
      "title": "Crumple of paper"
    },
    "generator": "Sketchfab-15.1.0",
    "version": "2.0"
  },
  "bufferViews": [
    {
      "buffer": 0,
      "byteLength": 4718592,
      "name": "floatBufferViews",
      "target": 34963
    },
    {
      "buffer": 0,
      "byteLength": 1643712,
      "byteOffset": 4718592,
      "byteStride": 8,
      "name": "floatBufferViews",
      "target": 34962
    },
    {
      "buffer": 0,
      "byteLength": 4931136,
      "byteOffset": 6362304,
      "byteStride": 12,
      "name": "floatBufferViews",
      "target": 34962
    }
  ],
  "buffers": [
    {
      "byteLength": 11293440,
      "uri": "scene.bin"
    }
  ],
  "images": [
    {
      "uri": "textures/main_baseColor.png"
    }
  ],
  "materials": [
    {
      "doubleSided": true,
      "name": "main",
      "pbrMetallicRoughness": {
        "baseColorTexture": {
          "index": 0
        },
        "metallicFactor": 0.0,
        "roughnessFactor": 0.5
      }
    }
  ],
  "meshes": [
    {
      "name": "Object_0",
      "primitives": [
        {
          "attributes": {
            "NORMAL": 1,
            "POSITION": 0,
            "TEXCOORD_0": 2
          },
          "indices": 3,
          "material": 0,
          "mode": 4
        }
      ]
    },
    {
      "name": "Object_1",
      "primitives": [
        {
          "attributes": {
            "NORMAL": 5,
            "POSITION": 4,
            "TEXCOORD_0": 6
          },
          "indices": 7,
          "material": 0,
          "mode": 4
        }
      ]
    },
    {
      "name": "Object_2",
      "primitives": [
        {
          "attributes": {
            "NORMAL": 9,
            "POSITION": 8,
            "TEXCOORD_0": 10
          },
          "indices": 11,
          "material": 0,
          "mode": 4
        }
      ]
    },
    {
      "name": "Object_3",
      "primitives": [
        {
          "attributes": {
            "NORMAL": 13,
            "POSITION": 12,
            "TEXCOORD_0": 14
          },
          "indices": 15,
          "material": 0,
          "mode": 4
        }
      ]
    },
    {
      "name": "Object_4",
      "primitives": [
        {
          "attributes": {
            "NORMAL": 17,
            "POSITION": 16,
            "TEXCOORD_0": 18
          },
          "indices": 19,
          "material": 0,
          "mode": 4
        }
      ]
    },
    {
      "name": "Object_5",
      "primitives": [
        {
          "attributes": {
            "NORMAL": 21,
            "POSITION": 20,
            "TEXCOORD_0": 22
          },
          "indices": 23,
          "material": 0,
          "mode": 4
        }
      ]
    }
  ],
  "nodes": [
    {
      "children": [
        1
      ],
      "matrix": [
        1.0,
        0.0,
        0.0,
        0.0,
        0.0,
        2.220446049250313e-16,
        -1.0,
        0.0,
        0.0,
        1.0,
        2.220446049250313e-16,
        0.0,
        0.0,
        0.0,
        0.0,
        1.0
      ],
      "name": "Sketchfab_model"
    },
    {
      "children": [
        2
      ],
      "name": "root"
    },
    {
      "children": [
        3,
        6,
        9
      ],
      "matrix": [
        1.0,
        0.0,
        0.0,
        0.0,
        0.0,
        2.220446049250313e-16,
        1.0,
        0.0,
        0.0,
        -1.0,
        2.220446049250313e-16,
        0.0,
        0.0,
        0.0,
        0.0,
        1.0
      ],
      "name": "GLTF_SceneRootNode"
    },
    {
      "children": [
        4,
        5
      ],
      "name": "paper_0"
    },
    {
      "mesh": 0,
      "name": "Object_4"
    },
    {
      "mesh": 1,
      "name": "Object_5"
    },
    {
      "children": [
        7,
        8
      ],
      "matrix": [
        -0.6444348245155975,
        0.6765271437179439,
        -0.3563913309332756,
        0.0,
        -0.3300754213527681,
        0.1743021675027593,
        0.9277224642222655,
        0.0,
        0.6897492103441247,
        0.715492682154528,
        0.1109785952919562,
        0.0,
        0.0,
        0.0,
        1.0,
        1.0
      ],
      "name": "paper2_1"
    },
    {
      "mesh": 2,
      "name": "Object_7"
    },
    {
      "mesh": 3,
      "name": "Object_8"
    },
    {
      "children": [
        10,
        11
      ],
      "matrix": [
        0.8441903651346909,
        -0.28134468225856557,
        0.4562760098652831,
        0.0,
        -0.3671419300227329,
        -0.9236696744231869,
        0.1097321091119049,
        0.0,
        0.3905757681077256,
        -0.2601528441431903,
        -0.8830464693611935,
        0.0,
        0.0,
        0.0,
        -1.0,
        1.0
      ],
      "name": "paper3_2"
    },
    {
      "mesh": 4,
      "name": "Object_10"
    },
    {
      "mesh": 5,
      "name": "Object_11"
    }
  ],
  "samplers": [
    {
      "magFilter": 9729,
      "minFilter": 9987,
      "wrapS": 10497,
      "wrapT": 10497
    }
  ],
  "scene": 0,
  "scenes": [
    {
      "name": "Sketchfab_Scene",
      "nodes": [
        0
      ]
    }
  ],
  "textures": [
    {
      "sampler": 0,
      "source": 0
    }
  ]
}
